<svg id="Layer_1" data-name="Layer 1" xmlns="http://www.w3.org/2000/svg" viewBox="0 0 278.14 93.64"><defs><style>.cls-1{font-size:40.21px;font-family:CooperHewitt-BoldItalic, Cooper Hewitt;font-style:italic;}.cls-1,.cls-3{fill:#4eace0;font-weight:700;}.cls-2{fill:#fff;}.cls-3{font-size:14.15px;font-family:CooperHewitt-Bold, Cooper Hewitt;letter-spacing:0.6em;}.cls-4{letter-spacing:0.58em;}.cls-5{fill:#fffeff;}</style></defs><text class="cls-1" transform="translate(76.99 36.31)">EVO<tspan class="cls-2" x="75.87" y="0">PRIME</tspan></text><text class="cls-3" transform="translate(75.33 54.75)">TECHNO<tspan class="cls-4" x="104.67" y="0">L</tspan><tspan x="120.29" y="0">OGIES</tspan></text><path class="cls-5" d="M-4479.19,323v.73a1.28,1.28,0,0,1-1.29,1.28h-36a1.29,1.29,0,0,1-1.29-1.28V323a1.29,1.29,0,0,1,1.29-1.29h36A1.28,1.28,0,0,1-4479.19,323Z" transform="translate(4523.65 -305.05)"/><path class="cls-5" d="M-4475.69,305.05h-48v4.14h35.54a12.42,12.42,0,0,1,12.42,12.43V325a12.42,12.42,0,0,1-12.42,12.43h-29.36a3.28,3.28,0,0,0-.05,4.11h41.83A16.55,16.55,0,0,0-4459.14,325V321.6A16.55,16.55,0,0,0-4475.69,305.05Z" transform="translate(4523.65 -305.05)"/><path class="cls-5" d="M-4523.65,350.41v11h19.71V354S-4521.56,356.83-4523.65,350.41Z" transform="translate(4523.65 -305.05)"/></svg>